<svg width="551" height="174" viewBox="0 0 551 174" fill="none" xmlns="http://www.w3.org/2000/svg">
<rect width="550.7" height="173.6" fill="black"/>
<path d="M447.311 52H460.711L460.611 122H447.211L447.311 52ZM493.211 78C496.211 82 497.711 88.3333 497.711 97V122H484.311V97C484.311 95.2 484.244 93.4667 484.111 91.8C484.044 90.1333 483.711 88.6667 483.111 87.4C482.511 86.1333 481.544 85.1333 480.211 84.4C478.878 83.6667 476.978 83.3 474.511 83.3C472.578 83.3 470.478 83.8333 468.211 84.9L468.111 85L468.011 84.8L463.211 76.2L463.311 76.1C465.044 74.5667 466.978 73.4333 469.111 72.7C471.244 71.9 473.578 71.5 476.111 71.5C484.178 71.5 489.878 73.6667 493.211 78Z" fill="white"/>
<path d="M441.167 77.2V88.3H433.767L427.567 77.2H441.167ZM425.867 104.9C425.867 106.433 426.401 107.733 427.467 108.8C428.601 109.867 429.934 110.4 431.467 110.4H441.167V122H431.467C428.867 122 426.401 121.533 424.067 120.6C421.801 119.6 419.801 118.267 418.067 116.6C416.401 114.867 415.067 112.867 414.067 110.6C413.067 108.333 412.567 105.9 412.567 103.3V88.3H405.367V77.2H412.567V59.1H425.867V104.9Z" fill="white"/>
<path d="M399.325 72V122H386.225V97C386.225 95.0667 385.858 93.2667 385.125 91.6C384.392 89.9333 383.358 88.4667 382.025 87.2C380.758 85.9333 379.258 84.9667 377.525 84.3C375.858 83.5667 374.092 83.2 372.225 83.2C370.292 83.2 368.492 83.5667 366.825 84.3C365.158 85.0333 363.658 86.0333 362.325 87.3C361.058 88.5 360.058 89.9667 359.325 91.7C358.592 93.3667 358.225 95.1667 358.225 97.1C358.225 98.9667 358.592 100.733 359.325 102.4C360.058 104.067 361.058 105.533 362.325 106.8C363.658 108.067 365.158 109.067 366.825 109.8C368.492 110.533 370.292 110.9 372.225 110.9C374.292 110.9 376.058 110.533 377.525 109.8H377.625V110L382.625 118.9L382.525 119C379.258 121.533 375.225 122.8 370.425 122.8C366.892 122.8 363.558 122.133 360.425 120.8C357.292 119.467 354.558 117.633 352.225 115.3C349.892 112.967 348.025 110.233 346.625 107.1C345.292 103.967 344.625 100.633 344.625 97.1C344.625 93.5 345.292 90.1333 346.625 87C348.025 83.8667 349.892 81.1333 352.225 78.8C354.558 76.4667 357.292 74.6333 360.425 73.3C363.558 71.9 366.892 71.2 370.425 71.2C373.892 71.2 376.925 71.8667 379.525 73.2C382.125 74.4667 384.358 76.3333 386.225 78.8V72H399.325Z" fill="white"/>
<path d="M319.229 52C322.629 52 325.829 52.6667 328.829 54C331.829 55.2667 334.462 57.0333 336.729 59.3C338.996 61.5 340.762 64.1 342.029 67.1C343.362 70.1 344.029 73.3 344.029 76.7C344.029 80.1 343.362 83.3 342.029 86.3C340.762 89.3 338.996 91.9 336.729 94.1C334.462 96.3 331.829 98.0667 328.829 99.4C325.829 100.667 322.629 101.3 319.229 101.3H311.429L303.829 87.3H319.229C320.696 87.3 322.062 87.0333 323.329 86.5C324.662 85.9 325.796 85.1 326.729 84.1C327.662 83.0333 328.396 81.8 328.929 80.4C329.529 78.9333 329.829 77.3333 329.829 75.6C329.829 74.1333 329.529 72.7333 328.929 71.4C328.396 70 327.662 68.7667 326.729 67.7C325.796 66.6333 324.662 65.7667 323.329 65.1C322.062 64.4333 320.696 64.1 319.229 64.1H301.529V122H287.629V52H319.229Z" fill="white"/>
<path d="M282.085 77.2V88.3H274.685L268.485 77.2H282.085ZM266.785 104.9C266.785 106.433 267.318 107.733 268.385 108.8C269.518 109.867 270.852 110.4 272.385 110.4H282.085V122H272.385C269.785 122 267.318 121.533 264.985 120.6C262.718 119.6 260.718 118.267 258.985 116.6C257.318 114.867 255.985 112.867 254.985 110.6C253.985 108.333 253.485 105.9 253.485 103.3V88.3H246.285V77.2H253.485V59.1H266.785V104.9Z" fill="white"/>
<path d="M232.516 102.9L243.316 110L243.216 110.1C240.882 114.1 237.716 117.233 233.716 119.5C229.782 121.767 225.516 122.9 220.916 122.9C217.316 122.9 213.949 122.233 210.816 120.9C207.682 119.5 204.949 117.633 202.616 115.3C200.282 112.967 198.416 110.233 197.016 107.1C195.682 103.967 195.016 100.633 195.016 97.1C195.016 93.5667 195.682 90.2333 197.016 87.1C198.416 83.9667 200.282 81.2333 202.616 78.9C204.949 76.5667 207.682 74.7333 210.816 73.4C213.949 72 217.316 71.3 220.916 71.3C225.516 71.3 229.782 72.4333 233.716 74.7C237.716 76.9667 240.882 80.1 243.216 84.1L243.316 84.2L232.416 91.3L232.316 91.2C231.249 88.7333 229.682 86.7333 227.616 85.2C225.616 83.6667 223.382 82.9 220.916 82.9C219.116 82.9 217.416 83.3 215.816 84.1C214.282 84.8333 212.949 85.8667 211.816 87.2C210.682 88.4667 209.782 89.9667 209.116 91.7C208.449 93.3667 208.116 95.1667 208.116 97.1C208.116 99.0333 208.449 100.833 209.116 102.5C209.782 104.167 210.682 105.633 211.816 106.9C212.949 108.1 214.282 109.067 215.816 109.8C217.416 110.467 219.116 110.8 220.916 110.8C223.382 110.8 225.616 110.133 227.616 108.8C229.682 107.4 231.249 105.467 232.316 103L232.416 102.8L232.516 102.9Z" fill="white"/>
<path d="M190.731 72V122H177.631V97C177.631 95.0667 177.265 93.2667 176.531 91.6C175.798 89.9333 174.765 88.4667 173.431 87.2C172.165 85.9333 170.665 84.9667 168.931 84.3C167.265 83.5667 165.498 83.2 163.631 83.2C161.698 83.2 159.898 83.5667 158.231 84.3C156.565 85.0333 155.065 86.0333 153.731 87.3C152.465 88.5 151.465 89.9667 150.731 91.7C149.998 93.3667 149.631 95.1667 149.631 97.1C149.631 98.9667 149.998 100.733 150.731 102.4C151.465 104.067 152.465 105.533 153.731 106.8C155.065 108.067 156.565 109.067 158.231 109.8C159.898 110.533 161.698 110.9 163.631 110.9C165.698 110.9 167.465 110.533 168.931 109.8H169.031V110L174.031 118.9L173.931 119C170.665 121.533 166.631 122.8 161.831 122.8C158.298 122.8 154.965 122.133 151.831 120.8C148.698 119.467 145.965 117.633 143.631 115.3C141.298 112.967 139.431 110.233 138.031 107.1C136.698 103.967 136.031 100.633 136.031 97.1C136.031 93.5 136.698 90.1333 138.031 87C139.431 83.8667 141.298 81.1333 143.631 78.8C145.965 76.4667 148.698 74.6333 151.831 73.3C154.965 71.9 158.298 71.2 161.831 71.2C165.298 71.2 168.331 71.8667 170.931 73.2C173.531 74.4667 175.765 76.3333 177.631 78.8V72H190.731Z" fill="white"/>
<path d="M140.527 74L139.327 76L134.227 85.1L134.127 85C131.927 83.7333 129.56 83.1 127.027 83.1C125.293 83.1 123.66 83.4 122.127 84C120.593 84.5333 119.227 85.3333 118.027 86.4C116.827 87.4 115.793 88.6 114.927 90C114.127 91.4 113.593 92.9 113.327 94.5V122H99.7266V72H113.327V78.5C116.86 73.6333 122.027 71.2 128.827 71.2C132.827 71.2 136.693 72.1333 140.427 74H140.527Z" fill="white"/>
<path d="M78.6 93.9L72.1 80.9H94.3V93.9H78.6ZM55.5 51.9H102.8V63.7H69.6V122H55.5V51.9Z" fill="white"/>
</svg>
